<mxfile host="app.diagrams.net" agent="Mozilla/5.0 (Windows NT 10.0; Win64; x64) AppleWebKit/537.36 (KHTML, like Gecko) Chrome/137.0.0.0 Safari/537.36" version="27.1.4">
  <diagram name="Trang-1" id="gmSL2GpvzhngXg75Jvih">
    <mxGraphModel dx="1281" dy="562" grid="1" gridSize="10" guides="1" tooltips="1" connect="1" arrows="1" fold="1" page="1" pageScale="1" pageWidth="827" pageHeight="1169" math="0" shadow="0">
      <root>
        <mxCell id="0" />
        <mxCell id="1" parent="0" />
        <mxCell id="FIhhm0QVf5EOxdrx1Vze-6" value="User" style="shape=umlActor;verticalLabelPosition=bottom;verticalAlign=top;html=1;" parent="1" vertex="1">
          <mxGeometry x="210" y="80" width="30" height="60" as="geometry" />
        </mxCell>
        <mxCell id="FIhhm0QVf5EOxdrx1Vze-10" value="" style="endArrow=none;dashed=1;html=1;rounded=0;entryX=0.5;entryY=0.5;entryDx=0;entryDy=0;entryPerimeter=0;" parent="1" edge="1">
          <mxGeometry width="50" height="50" relative="1" as="geometry">
            <mxPoint x="224.5" y="250" as="sourcePoint" />
            <mxPoint x="224.5" y="170" as="targetPoint" />
            <Array as="points" />
          </mxGeometry>
        </mxCell>
        <mxCell id="FIhhm0QVf5EOxdrx1Vze-11" value="" style="shape=umlBoundary;whiteSpace=wrap;html=1;fillColor=light-dark(#FFFFCC,#FFFFCC);" parent="1" vertex="1">
          <mxGeometry x="330" y="60" width="100" height="80" as="geometry" />
        </mxCell>
        <mxCell id="FIhhm0QVf5EOxdrx1Vze-12" value="" style="endArrow=none;dashed=1;html=1;rounded=0;" parent="1" source="FIhhm0QVf5EOxdrx1Vze-16" edge="1">
          <mxGeometry width="50" height="50" relative="1" as="geometry">
            <mxPoint x="380" y="520" as="sourcePoint" />
            <mxPoint x="379" y="170" as="targetPoint" />
          </mxGeometry>
        </mxCell>
        <mxCell id="FIhhm0QVf5EOxdrx1Vze-13" value="" style="endArrow=none;dashed=1;html=1;rounded=0;entryX=0.5;entryY=0.5;entryDx=0;entryDy=0;entryPerimeter=0;exitX=0.102;exitY=1.001;exitDx=0;exitDy=0;exitPerimeter=0;" parent="1" source="8PfGd3eiHnkLPr6_WWIG-5" target="FIhhm0QVf5EOxdrx1Vze-14" edge="1">
          <mxGeometry width="50" height="50" relative="1" as="geometry">
            <mxPoint x="225" y="520" as="sourcePoint" />
            <mxPoint x="225" y="120" as="targetPoint" />
            <Array as="points">
              <mxPoint x="225" y="230" />
            </Array>
          </mxGeometry>
        </mxCell>
        <mxCell id="FIhhm0QVf5EOxdrx1Vze-14" value="" style="html=1;points=[[0,0,0,0,5],[0,1,0,0,-5],[1,0,0,0,5],[1,1,0,0,-5]];perimeter=orthogonalPerimeter;outlineConnect=0;targetShapes=umlLifeline;portConstraint=eastwest;newEdgeStyle={&quot;curved&quot;:0,&quot;rounded&quot;:0};" parent="1" vertex="1">
          <mxGeometry x="220" y="190" width="10" height="210" as="geometry" />
        </mxCell>
        <mxCell id="FIhhm0QVf5EOxdrx1Vze-15" value="" style="endArrow=none;dashed=1;html=1;rounded=0;entryX=0.588;entryY=0.988;entryDx=0;entryDy=0;entryPerimeter=0;exitX=0.343;exitY=1.006;exitDx=0;exitDy=0;exitPerimeter=0;" parent="1" source="8PfGd3eiHnkLPr6_WWIG-5" target="FIhhm0QVf5EOxdrx1Vze-16" edge="1">
          <mxGeometry width="50" height="50" relative="1" as="geometry">
            <mxPoint x="381" y="500" as="sourcePoint" />
            <mxPoint x="379" y="149" as="targetPoint" />
          </mxGeometry>
        </mxCell>
        <mxCell id="FIhhm0QVf5EOxdrx1Vze-16" value="" style="html=1;points=[[0,0,0,0,5],[0,1,0,0,-5],[1,0,0,0,5],[1,1,0,0,-5]];perimeter=orthogonalPerimeter;outlineConnect=0;targetShapes=umlLifeline;portConstraint=eastwest;newEdgeStyle={&quot;curved&quot;:0,&quot;rounded&quot;:0};" parent="1" vertex="1">
          <mxGeometry x="375" y="190" width="10" height="210" as="geometry" />
        </mxCell>
        <mxCell id="FIhhm0QVf5EOxdrx1Vze-17" value="username" style="html=1;verticalAlign=bottom;endArrow=block;curved=0;rounded=0;" parent="1" target="FIhhm0QVf5EOxdrx1Vze-16" edge="1">
          <mxGeometry width="80" relative="1" as="geometry">
            <mxPoint x="230" y="200" as="sourcePoint" />
            <mxPoint x="370" y="200" as="targetPoint" />
          </mxGeometry>
        </mxCell>
        <mxCell id="FIhhm0QVf5EOxdrx1Vze-19" value="password" style="html=1;verticalAlign=bottom;endArrow=block;curved=0;rounded=0;" parent="1" target="FIhhm0QVf5EOxdrx1Vze-16" edge="1">
          <mxGeometry width="80" relative="1" as="geometry">
            <mxPoint x="230" y="230" as="sourcePoint" />
            <mxPoint x="310" y="230" as="targetPoint" />
          </mxGeometry>
        </mxCell>
        <mxCell id="FIhhm0QVf5EOxdrx1Vze-21" value="Chọn &quot;Đăng nhập&quot;" style="html=1;verticalAlign=bottom;endArrow=block;curved=0;rounded=0;" parent="1" target="FIhhm0QVf5EOxdrx1Vze-16" edge="1">
          <mxGeometry width="80" relative="1" as="geometry">
            <mxPoint x="230" y="260" as="sourcePoint" />
            <mxPoint x="310" y="260" as="targetPoint" />
          </mxGeometry>
        </mxCell>
        <mxCell id="FIhhm0QVf5EOxdrx1Vze-22" value="" style="ellipse;shape=umlControl;whiteSpace=wrap;html=1;fillColor=light-dark(#FFFFCC,#FFFFCC);" parent="1" vertex="1">
          <mxGeometry x="520" y="60" width="70" height="80" as="geometry" />
        </mxCell>
        <mxCell id="FIhhm0QVf5EOxdrx1Vze-23" value="" style="endArrow=none;dashed=1;html=1;rounded=0;entryX=0.486;entryY=1.028;entryDx=0;entryDy=0;entryPerimeter=0;" parent="1" edge="1">
          <mxGeometry width="50" height="50" relative="1" as="geometry">
            <mxPoint x="554.5" y="297.76" as="sourcePoint" />
            <mxPoint x="554.5" y="170" as="targetPoint" />
          </mxGeometry>
        </mxCell>
        <mxCell id="FIhhm0QVf5EOxdrx1Vze-25" value="submitLogin(username,password)" style="html=1;verticalAlign=bottom;endArrow=block;curved=0;rounded=0;" parent="1" target="FIhhm0QVf5EOxdrx1Vze-24" edge="1">
          <mxGeometry width="80" relative="1" as="geometry">
            <mxPoint x="385" y="290" as="sourcePoint" />
            <mxPoint x="465" y="290" as="targetPoint" />
          </mxGeometry>
        </mxCell>
        <mxCell id="FIhhm0QVf5EOxdrx1Vze-26" value="" style="ellipse;shape=umlEntity;whiteSpace=wrap;html=1;fillColor=light-dark(#FFFFCC,#FFFFCC);" parent="1" vertex="1">
          <mxGeometry x="690" y="60" width="80" height="80" as="geometry" />
        </mxCell>
        <mxCell id="FIhhm0QVf5EOxdrx1Vze-27" value="" style="endArrow=none;dashed=1;html=1;rounded=0;entryX=0.5;entryY=1;entryDx=0;entryDy=0;" parent="1" edge="1">
          <mxGeometry width="50" height="50" relative="1" as="geometry">
            <mxPoint x="729.5" y="330" as="sourcePoint" />
            <mxPoint x="729.5" y="170" as="targetPoint" />
          </mxGeometry>
        </mxCell>
        <mxCell id="FIhhm0QVf5EOxdrx1Vze-28" value="" style="endArrow=none;dashed=1;html=1;rounded=0;entryX=0.5;entryY=1;entryDx=0;entryDy=0;exitX=0.874;exitY=1;exitDx=0;exitDy=0;exitPerimeter=0;" parent="1" source="8PfGd3eiHnkLPr6_WWIG-5" target="FIhhm0QVf5EOxdrx1Vze-29" edge="1">
          <mxGeometry width="50" height="50" relative="1" as="geometry">
            <mxPoint x="730" y="520" as="sourcePoint" />
            <mxPoint x="730" y="150" as="targetPoint" />
          </mxGeometry>
        </mxCell>
        <mxCell id="FIhhm0QVf5EOxdrx1Vze-29" value="" style="html=1;points=[[0,0,0,0,5],[0,1,0,0,-5],[1,0,0,0,5],[1,1,0,0,-5]];perimeter=orthogonalPerimeter;outlineConnect=0;targetShapes=umlLifeline;portConstraint=eastwest;newEdgeStyle={&quot;curved&quot;:0,&quot;rounded&quot;:0};" parent="1" vertex="1">
          <mxGeometry x="725" y="300" width="10" height="100" as="geometry" />
        </mxCell>
        <mxCell id="FIhhm0QVf5EOxdrx1Vze-30" value="" style="endArrow=none;dashed=1;html=1;rounded=0;entryX=0.486;entryY=1.028;entryDx=0;entryDy=0;entryPerimeter=0;exitX=0.609;exitY=1.01;exitDx=0;exitDy=0;exitPerimeter=0;" parent="1" source="8PfGd3eiHnkLPr6_WWIG-5" target="FIhhm0QVf5EOxdrx1Vze-24" edge="1">
          <mxGeometry width="50" height="50" relative="1" as="geometry">
            <mxPoint x="554" y="520" as="sourcePoint" />
            <mxPoint x="554" y="152" as="targetPoint" />
          </mxGeometry>
        </mxCell>
        <mxCell id="FIhhm0QVf5EOxdrx1Vze-24" value="" style="html=1;points=[[0,0,0,0,5],[0,1,0,0,-5],[1,0,0,0,5],[1,1,0,0,-5]];perimeter=orthogonalPerimeter;outlineConnect=0;targetShapes=umlLifeline;portConstraint=eastwest;newEdgeStyle={&quot;curved&quot;:0,&quot;rounded&quot;:0};" parent="1" vertex="1">
          <mxGeometry x="550" y="280" width="10" height="120" as="geometry" />
        </mxCell>
        <mxCell id="FIhhm0QVf5EOxdrx1Vze-33" value="isValidUser (true/false)" style="html=1;verticalAlign=bottom;endArrow=open;dashed=1;endSize=8;curved=0;rounded=0;" parent="1" edge="1">
          <mxGeometry relative="1" as="geometry">
            <mxPoint x="725" y="370" as="sourcePoint" />
            <mxPoint x="560.0000000000001" y="370" as="targetPoint" />
          </mxGeometry>
        </mxCell>
        <mxCell id="FIhhm0QVf5EOxdrx1Vze-38" value="validateUser(username,password)" style="html=1;verticalAlign=bottom;endArrow=block;curved=0;rounded=0;" parent="1" target="FIhhm0QVf5EOxdrx1Vze-29" edge="1">
          <mxGeometry width="80" relative="1" as="geometry">
            <mxPoint x="560" y="310" as="sourcePoint" />
            <mxPoint x="640" y="310" as="targetPoint" />
          </mxGeometry>
        </mxCell>
        <mxCell id="FIhhm0QVf5EOxdrx1Vze-40" value="loginResult(success/fail)" style="html=1;verticalAlign=bottom;endArrow=open;dashed=1;endSize=8;curved=0;rounded=0;" parent="1" edge="1">
          <mxGeometry relative="1" as="geometry">
            <mxPoint x="550" y="380" as="sourcePoint" />
            <mxPoint x="385" y="380" as="targetPoint" />
          </mxGeometry>
        </mxCell>
        <mxCell id="FIhhm0QVf5EOxdrx1Vze-41" value="Hiển thị kết quả&lt;br&gt;đăng nhập" style="html=1;verticalAlign=bottom;endArrow=open;dashed=1;endSize=8;curved=0;rounded=0;" parent="1" edge="1">
          <mxGeometry relative="1" as="geometry">
            <mxPoint x="375" y="390" as="sourcePoint" />
            <mxPoint x="230" y="390" as="targetPoint" />
          </mxGeometry>
        </mxCell>
        <mxCell id="8PfGd3eiHnkLPr6_WWIG-1" value="&lt;span style=&quot;text-wrap-mode: wrap;&quot;&gt;V_LoginScreen&lt;/span&gt;" style="text;html=1;align=center;verticalAlign=middle;resizable=0;points=[];autosize=1;strokeColor=none;fillColor=none;" parent="1" vertex="1">
          <mxGeometry x="325" y="140" width="110" height="30" as="geometry" />
        </mxCell>
        <mxCell id="8PfGd3eiHnkLPr6_WWIG-2" value="&lt;span style=&quot;text-wrap-mode: wrap;&quot;&gt;AuthController&lt;/span&gt;" style="text;html=1;align=center;verticalAlign=middle;resizable=0;points=[];autosize=1;strokeColor=none;fillColor=none;" parent="1" vertex="1">
          <mxGeometry x="505" y="140" width="100" height="30" as="geometry" />
        </mxCell>
        <mxCell id="8PfGd3eiHnkLPr6_WWIG-3" value="&lt;span style=&quot;text-wrap-mode: wrap;&quot;&gt;Account&lt;/span&gt;" style="text;html=1;align=center;verticalAlign=middle;resizable=0;points=[];autosize=1;strokeColor=none;fillColor=none;" parent="1" vertex="1">
          <mxGeometry x="695" y="140" width="70" height="30" as="geometry" />
        </mxCell>
        <mxCell id="8PfGd3eiHnkLPr6_WWIG-5" value="Đăng nhập" style="shape=umlFrame;whiteSpace=wrap;html=1;pointerEvents=0;width=80;height=30;" parent="1" vertex="1">
          <mxGeometry x="160" y="40" width="650" height="440" as="geometry" />
        </mxCell>
        <mxCell id="6fp7maXbf7caRMCLjO6t-1" value="" style="html=1;points=[[0,0,0,0,5],[0,1,0,0,-5],[1,0,0,0,5],[1,1,0,0,-5]];perimeter=orthogonalPerimeter;outlineConnect=0;targetShapes=umlLifeline;portConstraint=eastwest;newEdgeStyle={&quot;curved&quot;:0,&quot;rounded&quot;:0};" parent="1" vertex="1">
          <mxGeometry x="730" y="340" width="10" height="20" as="geometry" />
        </mxCell>
        <mxCell id="6fp7maXbf7caRMCLjO6t-2" value="checkUser()" style="html=1;align=left;spacingLeft=2;endArrow=block;rounded=0;edgeStyle=orthogonalEdgeStyle;curved=0;rounded=0;" parent="1" target="6fp7maXbf7caRMCLjO6t-1" edge="1">
          <mxGeometry x="-1" y="5" relative="1" as="geometry">
            <mxPoint x="735" y="320" as="sourcePoint" />
            <Array as="points">
              <mxPoint x="735" y="330" />
              <mxPoint x="765" y="330" />
              <mxPoint x="765" y="350" />
            </Array>
            <mxPoint as="offset" />
          </mxGeometry>
        </mxCell>
      </root>
    </mxGraphModel>
  </diagram>
</mxfile>
